<?xml version="1.0" encoding="utf-8"?>
<!-- Generator: Adobe Illustrator 21.1.0, SVG Export Plug-In . SVG Version: 6.00 Build 0)  -->
<svg version="1.1" id="Capa_1" xmlns="http://www.w3.org/2000/svg" xmlns:xlink="http://www.w3.org/1999/xlink" x="0px" y="0px"
	 viewBox="0 0 426 426" style="enable-background:new 0 0 426 426;" xml:space="preserve">
<style type="text/css">
	.st0{fill:#5755D9;}
	.st1{fill:#FFFFFF;}
</style>
<g>
	<path class="st0" d="M213.3,0h-0.6C139.1,0,79.3,59.8,79.3,133.4c0,48.2,22,111.8,65.2,189.1c32.1,57.3,64.6,101.2,65,101.6
		c0.9,1.2,2.3,1.9,3.8,1.9c0,0,0.1,0,0.1,0c1.6,0,3-0.8,3.9-2.1c0.3-0.5,32.6-49.3,64.5-109c43-80.6,64.8-141.6,64.8-181.5
		C346.7,59.8,286.8,0,213.3,0z"/>
</g>
<g>
	<g id="_x32_37._Locked">
		<g>
			<path class="st1" d="M266.6,117.6V90.7c0-29.6-24-53.6-53.6-53.6c-29.6,0-53.6,24-53.6,53.6v26.8c-9.9,0-17.9,8-17.9,17.9v89.4
				c0,9.9,8,17.9,17.9,17.9h107.3c9.9,0,17.9-8,17.9-17.9v-89.4C284.5,125.6,276.5,117.6,266.6,117.6z M177.2,90.7
				c0-19.8,16-35.8,35.8-35.8c19.7,0,35.8,16,35.8,35.8v26.8h-71.5V90.7z M266.6,224.8H159.3v-89.4h107.3L266.6,224.8L266.6,224.8z
				 M204,186.6V198c0,4.9,4,8.9,8.9,8.9c4.9,0,8.9-4,8.9-8.9v-11.4c5.3-3.1,8.9-8.8,8.9-15.4c0-9.9-8-17.9-17.9-17.9
				s-17.9,8-17.9,17.9C195.1,177.8,198.7,183.5,204,186.6z"/>
		</g>
	</g>
</g>
</svg>
